# xmcd
#
# Track frame offsets:
#	150
#	25597
#	52220
#	76999
#	100913
#	124538
#	139587
#	154985
#	177769
#	201249
#	233965
#	246764
#	259202
#	275881
#	294715
#
# Disc length: 4139 seconds
#
# Revision: 1
# Processed by: cddbd v1.5.2PL0 Copyright (c) Steve Scherf et al.
# Submitted via: audiograbber 1.83.01
#
DISCID=dc10290f
DTITLE=Switchtense - 10 Unbreakable Years
DYEAR=2013
DGENRE=Thrash Metal
TTITLE0=Concrete Walls
TTITLE1=Face off
TTITLE2=Into the words of chaos
TTITLE3=Unbreakable
TTITLE4=I will stand stronger
TTITLE5=Blood of victory
TTITLE6=State of resignation
TTITLE7=The legacy of hate
TTITLE8=Let them die alone
TTITLE9=Infected blood
TTITLE10=This only the beginning
TTITLE11=The right track
TTITLE12=Ghost of past
TTITLE13=We always be the same
TTITLE14=Blood of victory
EXTD=
EXTT0=
EXTT1=
EXTT2=
EXTT3=
EXTT4=
EXTT5=
EXTT6=
EXTT7=
EXTT8=
EXTT9=
EXTT10=
EXTT11=
EXTT12=
EXTT13=
EXTT14=
PLAYORDER=
